<svg xmlns="http://www.w3.org/2000/svg" viewBox="0 0 40 29.48"><defs><style>.cls-1{fill:#69be53;}.cls-2{fill:#f0546e;}</style></defs><g id="Layer_2" data-name="Layer 2"><g id="Layer_1-2" data-name="Layer 1"><path class="cls-1" d="M12.46,27.6a23.81,23.81,0,0,0,2-4,.82.82,0,0,0,.13-.46,17.67,17.67,0,0,0,1.24-7,37.67,37.67,0,0,1,.21-4.38,9.43,9.43,0,0,1,.88-3,4.38,4.38,0,0,1,3.2-2.38c.41-.08.5-.2.37-.62a12.15,12.15,0,0,0-2.58-4.4L17.7,1.1a3,3,0,0,1,1.6.26,6.91,6.91,0,0,1,2.94,2.41A14,14,0,0,1,23.59,6c.07.14.11.28.32.3a27.28,27.28,0,0,1,3.48.51c.31.07.35,0,.33-.29A10.07,10.07,0,0,0,25.4,1c-.26-.34-.56-.66-.84-1h.68a8.28,8.28,0,0,1,2,.88A9.25,9.25,0,0,1,30,4.07a16.51,16.51,0,0,1,1.51,3.48,1.08,1.08,0,0,0,.72.79,16.48,16.48,0,0,1,5,3.24A8.26,8.26,0,0,1,40,16.46a4.06,4.06,0,0,1-3.84,4.89,14.6,14.6,0,0,1-5.62-.52c-.2,0-.43-.24-.58-.09s0,.39.08.58a31.93,31.93,0,0,1,.82,3.86c0,.2,0,.42,0,.62h0a.3.3,0,0,1-.3-.12c-.51-.51-.94-.36-1.49,0-1.85,1.25-3.75,2.43-5.61,3.66a.55.55,0,0,1-.72,0c-2-1.31-4-2.6-6-3.92a.56.56,0,0,0-.72,0c-1.16.75-2.28,1.55-3.48,2.22Z"/><path class="cls-2" d="M15.85,16.17a17.67,17.67,0,0,1-1.24,7,20.19,20.19,0,0,0-2-2.13,13.92,13.92,0,0,0-5.2-2.74A.52.52,0,0,1,7,17.72a6.23,6.23,0,0,0-3.4-5.32c-.23-.13-.32-.24-.24-.51a5.49,5.49,0,0,0-.86-4.41A12.31,12.31,0,0,0,0,4.58,21.57,21.57,0,0,1,4.9,5.66a17.53,17.53,0,0,1,10.17,8.81C15.35,15,15.59,15.6,15.85,16.17Z"/><path class="cls-1" d="M30.84,25.8h0l0,0Z"/><path class="cls-1" d="M12.51,27.65s0,.08-.09.05,0-.06,0-.1Z"/></g></g></svg>