<svg xmlns="http://www.w3.org/2000/svg" viewBox="0 0 40 40"><defs><style>.cls-1{fill:#69be53;}.cls-2{fill:#f0546e;}.cls-3{fill:none;}</style></defs><g id="Layer_2" data-name="Layer 2"><g id="Layer_1-2" data-name="Layer 1"><path class="cls-1" d="M12.46,32.86a23.81,23.81,0,0,0,2-4,.82.82,0,0,0,.13-.46,17.67,17.67,0,0,0,1.24-7,37.67,37.67,0,0,1,.21-4.38,9.43,9.43,0,0,1,.88-3,4.38,4.38,0,0,1,3.2-2.38c.41-.08.5-.2.37-.62a12.15,12.15,0,0,0-2.58-4.4l-.23-.26a3,3,0,0,1,1.6.26A6.91,6.91,0,0,1,22.24,9a13.56,13.56,0,0,1,1.35,2.22c.07.14.11.28.32.3a27.28,27.28,0,0,1,3.48.51c.31.07.35,0,.33-.29A10.07,10.07,0,0,0,25.4,6.25c-.26-.34-.56-.66-.84-1h.68a8.28,8.28,0,0,1,2,.88A9.25,9.25,0,0,1,30,9.33a16.51,16.51,0,0,1,1.51,3.48,1.08,1.08,0,0,0,.72.79,16.48,16.48,0,0,1,5,3.24A8.26,8.26,0,0,1,40,21.72a4.06,4.06,0,0,1-3.84,4.89,14.6,14.6,0,0,1-5.62-.52c-.2-.05-.43-.24-.58-.09s0,.39.08.58a31.93,31.93,0,0,1,.82,3.86c0,.2,0,.41,0,.62h0a.3.3,0,0,1-.3-.12c-.51-.51-.94-.36-1.49,0-1.85,1.26-3.75,2.44-5.61,3.67a.55.55,0,0,1-.72,0c-2-1.31-4-2.6-6-3.92a.56.56,0,0,0-.72,0c-1.16.74-2.28,1.55-3.48,2.22Z"/><path class="cls-2" d="M15.85,21.43a17.67,17.67,0,0,1-1.24,7,20.19,20.19,0,0,0-2-2.13,13.78,13.78,0,0,0-5.2-2.74A.52.52,0,0,1,7,23a6.23,6.23,0,0,0-3.4-5.32c-.23-.13-.32-.24-.24-.51a5.49,5.49,0,0,0-.86-4.41A12.31,12.31,0,0,0,0,9.84a21.57,21.57,0,0,1,4.9,1.08,17.53,17.53,0,0,1,10.17,8.81C15.35,20.28,15.59,20.86,15.85,21.43Z"/><path class="cls-1" d="M30.84,31.06h0l0,0Z"/><path class="cls-1" d="M12.51,32.91s0,.08-.09.05,0-.06,0-.1Z"/><rect class="cls-3" width="40" height="40"/></g></g></svg>