<svg xmlns="http://www.w3.org/2000/svg" viewBox="0 0 39 39"><defs><style>.cls-1{fill:#69be53;}.cls-2{fill:#f0546e;}.cls-3{fill:none;}</style></defs><g id="Layer_2" data-name="Layer 2"><g id="Layer_1-2" data-name="Layer 1"><path class="cls-1" d="M12.14,32a23.05,23.05,0,0,0,2-3.9c.06-.15.16-.28.13-.45a17.35,17.35,0,0,0,1.21-6.8,35.9,35.9,0,0,1,.2-4.27,9.27,9.27,0,0,1,.86-3,4.24,4.24,0,0,1,3.12-2.32c.39-.08.49-.2.36-.6a12,12,0,0,0-2.52-4.3l-.23-.25a2.92,2.92,0,0,1,1.57.26,6.64,6.64,0,0,1,2.87,2.35A13.51,13.51,0,0,1,23,11c.07.14.11.27.32.29a27.7,27.7,0,0,1,3.39.5c.3.06.33,0,.32-.29A9.76,9.76,0,0,0,24.77,6.1c-.26-.34-.55-.65-.82-1h.66A8.42,8.42,0,0,1,26.56,6a9.17,9.17,0,0,1,2.67,3.11,16,16,0,0,1,1.47,3.4,1.07,1.07,0,0,0,.7.77,15.72,15.72,0,0,1,4.91,3.16A8,8,0,0,1,39,21.18,4,4,0,0,1,35.21,26a14.36,14.36,0,0,1-5.49-.52c-.18-.05-.41-.23-.56-.08s0,.38.08.57a31.8,31.8,0,0,1,.8,3.76,6.08,6.08,0,0,1,0,.61h0a.31.31,0,0,1-.29-.12c-.5-.5-.92-.35-1.46,0-1.8,1.22-3.65,2.38-5.47,3.58a.54.54,0,0,1-.7,0c-1.95-1.28-3.92-2.54-5.87-3.82a.53.53,0,0,0-.7,0c-1.13.73-2.22,1.51-3.4,2.17Z"/><path class="cls-2" d="M15.46,20.89a17.35,17.35,0,0,1-1.21,6.8,20.27,20.27,0,0,0-2-2.08,13.57,13.57,0,0,0-5.08-2.67.5.5,0,0,1-.43-.54,6.09,6.09,0,0,0-3.31-5.18c-.23-.13-.32-.23-.25-.5a5.34,5.34,0,0,0-.83-4.3A12,12,0,0,0,0,9.59a20.85,20.85,0,0,1,4.77,1.06,17,17,0,0,1,9.92,8.58C15,19.78,15.2,20.34,15.46,20.89Z"/><path class="cls-1" d="M30.07,30.29h0l0,0Z"/><path class="cls-1" d="M12.19,32.09s0,.08-.08,0,0-.07,0-.1Z"/><rect class="cls-3" width="39" height="39"/></g></g></svg>